<svg width="121" height="32" viewBox="0 0 121 32" fill="none" xmlns="http://www.w3.org/2000/svg">
<path fill-rule="evenodd" clip-rule="evenodd" d="M14 1C21.732 1 28 7.26801 28 15C28 22.732 21.732 29 14 29C6.26801 29 0 22.732 0 15C0 7.26801 6.26801 1 14 1ZM22.0664 7.23633C19.1506 4.32059 14.4227 4.32071 11.5068 7.23633L6.22656 12.5166C3.31095 15.4325 3.31083 20.1603 6.22656 23.0762C9.14239 25.992 13.8702 25.9918 16.7861 23.0762L22.0664 17.7959C24.9821 14.88 24.9822 10.1522 22.0664 7.23633Z" fill="black"/>
<path d="M42.858 14.288C41.598 14.288 40.512 14.024 39.6 13.496C38.688 12.956 37.986 12.188 37.494 11.192C37.014 10.196 36.774 9.008 36.774 7.628C36.774 6.248 37.014 5.06 37.494 4.064C37.986 3.056 38.688 2.282 39.6 1.742C40.512 1.202 41.598 0.932 42.858 0.932C44.142 0.932 45.234 1.202 46.134 1.742C47.046 2.282 47.742 3.056 48.222 4.064C48.714 5.06 48.96 6.248 48.96 7.628C48.96 9.008 48.714 10.196 48.222 11.192C47.742 12.188 47.046 12.956 46.134 13.496C45.234 14.024 44.142 14.288 42.858 14.288ZM42.858 12.254C43.638 12.254 44.298 12.074 44.838 11.714C45.39 11.342 45.81 10.814 46.098 10.13C46.398 9.434 46.548 8.6 46.548 7.628C46.548 6.656 46.398 5.822 46.098 5.126C45.81 4.43 45.39 3.896 44.838 3.524C44.298 3.152 43.638 2.966 42.858 2.966C42.102 2.966 41.448 3.152 40.896 3.524C40.344 3.896 39.918 4.43 39.618 5.126C39.33 5.822 39.186 6.656 39.186 7.628C39.186 8.6 39.33 9.434 39.618 10.13C39.918 10.814 40.344 11.342 40.896 11.714C41.448 12.074 42.102 12.254 42.858 12.254ZM50.4485 16.7V4.388H52.6625L52.7165 6.44L52.4825 6.332C52.7225 5.624 53.1125 5.09 53.6525 4.73C54.2045 4.358 54.8465 4.172 55.5785 4.172C56.4905 4.172 57.2465 4.4 57.8465 4.856C58.4585 5.312 58.9145 5.918 59.2145 6.674C59.5145 7.43 59.6645 8.27 59.6645 9.194C59.6645 10.118 59.5085 10.958 59.1965 11.714C58.8965 12.47 58.4405 13.076 57.8285 13.532C57.2285 13.988 56.4725 14.216 55.5605 14.216C55.0805 14.216 54.6305 14.132 54.2105 13.964C53.8025 13.796 53.4485 13.556 53.1485 13.244C52.8605 12.932 52.6565 12.566 52.5365 12.146L52.7525 11.966V16.7H50.4485ZM55.0205 12.344C55.7165 12.344 56.2625 12.068 56.6585 11.516C57.0665 10.952 57.2705 10.178 57.2705 9.194C57.2705 8.21 57.0665 7.442 56.6585 6.89C56.2625 6.326 55.7165 6.044 55.0205 6.044C54.5525 6.044 54.1505 6.164 53.8145 6.404C53.4785 6.632 53.2145 6.98 53.0225 7.448C52.8425 7.916 52.7525 8.498 52.7525 9.194C52.7525 9.89 52.8425 10.472 53.0225 10.94C53.2025 11.408 53.4605 11.762 53.7965 12.002C54.1445 12.23 54.5525 12.344 55.0205 12.344ZM65.0704 14.216C64.1104 14.216 63.2764 14.012 62.5684 13.604C61.8604 13.184 61.3144 12.596 60.9304 11.84C60.5464 11.084 60.3544 10.202 60.3544 9.194C60.3544 8.186 60.5464 7.31 60.9304 6.566C61.3144 5.81 61.8544 5.222 62.5504 4.802C63.2584 4.382 64.0804 4.172 65.0164 4.172C65.9284 4.172 66.7264 4.376 67.4104 4.784C68.1064 5.192 68.6404 5.78 69.0124 6.548C69.3844 7.316 69.5704 8.24 69.5704 9.32V9.842H62.7484C62.7964 10.682 63.0244 11.318 63.4324 11.75C63.8524 12.17 64.4044 12.38 65.0884 12.38C65.6044 12.38 66.0304 12.266 66.3664 12.038C66.7144 11.798 66.9544 11.468 67.0864 11.048L69.4444 11.192C69.1804 12.128 68.6584 12.866 67.8784 13.406C67.1104 13.946 66.1744 14.216 65.0704 14.216ZM62.7484 8.294H67.1944C67.1464 7.514 66.9244 6.938 66.5284 6.566C66.1324 6.182 65.6284 5.99 65.0164 5.99C64.4044 5.99 63.8944 6.188 63.4864 6.584C63.0904 6.98 62.8444 7.55 62.7484 8.294ZM70.8314 14V4.388H72.9194L73.0094 7.088L72.7394 6.98C72.8354 6.308 73.0334 5.768 73.3334 5.36C73.6334 4.952 73.9994 4.652 74.4314 4.46C74.8634 4.268 75.3374 4.172 75.8534 4.172C76.5614 4.172 77.1554 4.328 77.6354 4.64C78.1274 4.952 78.4994 5.384 78.7514 5.936C79.0034 6.476 79.1294 7.106 79.1294 7.826V14H76.8254V8.564C76.8254 8.024 76.7714 7.568 76.6634 7.196C76.5554 6.824 76.3754 6.542 76.1234 6.35C75.8834 6.146 75.5594 6.044 75.1514 6.044C74.5394 6.044 74.0474 6.26 73.6754 6.692C73.3154 7.124 73.1354 7.748 73.1354 8.564V14H70.8314ZM37.44 29V16.22H42.39C43.89 16.22 45.06 16.58 45.9 17.3C46.74 18.02 47.16 19.016 47.16 20.288C47.16 21.14 46.968 21.878 46.584 22.502C46.2 23.114 45.654 23.582 44.946 23.906C44.238 24.23 43.386 24.392 42.39 24.392H39.78V29H37.44ZM39.78 22.358H42.282C43.074 22.358 43.68 22.184 44.1 21.836C44.532 21.488 44.748 20.972 44.748 20.288C44.748 19.616 44.532 19.112 44.1 18.776C43.68 18.428 43.074 18.254 42.282 18.254H39.78V22.358ZM48.5501 29V19.388H50.7101L50.8001 22.052L50.6021 22.016C50.7461 21.092 51.0161 20.426 51.4121 20.018C51.8201 19.598 52.3721 19.388 53.0681 19.388H53.9501V21.368H53.0501C52.5581 21.368 52.1501 21.44 51.8261 21.584C51.5021 21.728 51.2561 21.956 51.0881 22.268C50.9321 22.568 50.8541 22.964 50.8541 23.456V29H48.5501ZM58.8306 29.216C57.8826 29.216 57.0486 29.012 56.3286 28.604C55.6206 28.184 55.0686 27.596 54.6726 26.84C54.2886 26.084 54.0966 25.202 54.0966 24.194C54.0966 23.174 54.2886 22.292 54.6726 21.548C55.0686 20.792 55.6206 20.21 56.3286 19.802C57.0486 19.382 57.8826 19.172 58.8306 19.172C59.7786 19.172 60.6066 19.382 61.3146 19.802C62.0226 20.21 62.5686 20.792 62.9526 21.548C63.3486 22.292 63.5466 23.174 63.5466 24.194C63.5466 25.202 63.3486 26.084 62.9526 26.84C62.5686 27.596 62.0226 28.184 61.3146 28.604C60.6066 29.012 59.7786 29.216 58.8306 29.216ZM58.8306 27.344C59.5746 27.344 60.1446 27.068 60.5406 26.516C60.9486 25.964 61.1526 25.19 61.1526 24.194C61.1526 23.21 60.9486 22.442 60.5406 21.89C60.1446 21.326 59.5746 21.044 58.8306 21.044C58.0866 21.044 57.5106 21.326 57.1026 21.89C56.6946 22.442 56.4906 23.21 56.4906 24.194C56.4906 25.19 56.6946 25.964 57.1026 26.516C57.5106 27.068 58.0866 27.344 58.8306 27.344ZM64.7845 31.7V19.388H66.9985L67.0525 21.44L66.8185 21.332C67.0585 20.624 67.4485 20.09 67.9885 19.73C68.5405 19.358 69.1825 19.172 69.9145 19.172C70.8265 19.172 71.5825 19.4 72.1825 19.856C72.7945 20.312 73.2505 20.918 73.5505 21.674C73.8505 22.43 74.0005 23.27 74.0005 24.194C74.0005 25.118 73.8445 25.958 73.5325 26.714C73.2325 27.47 72.7765 28.076 72.1645 28.532C71.5645 28.988 70.8085 29.216 69.8965 29.216C69.4165 29.216 68.9665 29.132 68.5465 28.964C68.1385 28.796 67.7845 28.556 67.4845 28.244C67.1965 27.932 66.9925 27.566 66.8725 27.146L67.0885 26.966V31.7H64.7845ZM69.3565 27.344C70.0525 27.344 70.5985 27.068 70.9945 26.516C71.4025 25.952 71.6065 25.178 71.6065 24.194C71.6065 23.21 71.4025 22.442 70.9945 21.89C70.5985 21.326 70.0525 21.044 69.3565 21.044C68.8885 21.044 68.4865 21.164 68.1505 21.404C67.8145 21.632 67.5505 21.98 67.3585 22.448C67.1785 22.916 67.0885 23.498 67.0885 24.194C67.0885 24.89 67.1785 25.472 67.3585 25.94C67.5385 26.408 67.7965 26.762 68.1325 27.002C68.4805 27.23 68.8885 27.344 69.3565 27.344ZM79.4064 29.216C78.4464 29.216 77.6124 29.012 76.9044 28.604C76.1964 28.184 75.6504 27.596 75.2664 26.84C74.8824 26.084 74.6904 25.202 74.6904 24.194C74.6904 23.186 74.8824 22.31 75.2664 21.566C75.6504 20.81 76.1904 20.222 76.8864 19.802C77.5944 19.382 78.4164 19.172 79.3524 19.172C80.2644 19.172 81.0624 19.376 81.7464 19.784C82.4424 20.192 82.9764 20.78 83.3484 21.548C83.7204 22.316 83.9064 23.24 83.9064 24.32V24.842H77.0844C77.1324 25.682 77.3604 26.318 77.7684 26.75C78.1884 27.17 78.7404 27.38 79.4244 27.38C79.9404 27.38 80.3664 27.266 80.7024 27.038C81.0504 26.798 81.2904 26.468 81.4224 26.048L83.7804 26.192C83.5164 27.128 82.9944 27.866 82.2144 28.406C81.4464 28.946 80.5104 29.216 79.4064 29.216ZM77.0844 23.294H81.5304C81.4824 22.514 81.2604 21.938 80.8644 21.566C80.4684 21.182 79.9644 20.99 79.3524 20.99C78.7404 20.99 78.2304 21.188 77.8224 21.584C77.4264 21.98 77.1804 22.55 77.0844 23.294ZM85.1674 29V19.388H87.3274L87.4174 22.052L87.2194 22.016C87.3634 21.092 87.6334 20.426 88.0294 20.018C88.4374 19.598 88.9894 19.388 89.6854 19.388H90.5674V21.368H89.6674C89.1754 21.368 88.7674 21.44 88.4434 21.584C88.1194 21.728 87.8734 21.956 87.7054 22.268C87.5494 22.568 87.4714 22.964 87.4714 23.456V29H85.1674ZM95.1591 29C94.1991 29 93.4911 28.778 93.0351 28.334C92.5911 27.89 92.3691 27.194 92.3691 26.246V17.138H94.6731V26.03C94.6731 26.474 94.7691 26.786 94.9611 26.966C95.1531 27.134 95.4531 27.218 95.8611 27.218H97.2111V29H95.1591ZM90.8571 21.17V19.388H97.2111V21.17H90.8571ZM98.9218 31.7V29.918H100.146C100.458 29.918 100.686 29.87 100.83 29.774C100.986 29.678 101.106 29.516 101.19 29.288L101.46 28.622H100.794L97.3558 19.388H99.7498L102.162 26.462L104.466 19.388H106.86L103.098 30.008C102.882 30.608 102.576 31.04 102.18 31.304C101.796 31.568 101.256 31.7 100.56 31.7H98.9218Z" fill="black"/>
</svg>
